<svg width="8" height="8" viewBox="0 0 8 8" fill="none" xmlns="http://www.w3.org/2000/svg">
<path fill-rule="evenodd" clip-rule="evenodd" d="M6.16668 4.07134C6.16668 3.98293 6.13156 3.89815 6.06904 3.83564C6.00653 3.77313 5.92175 3.73801 5.83334 3.73801H1.66668C1.57827 3.73801 1.49349 3.77313 1.43097 3.83564C1.36846 3.89815 1.33334 3.98293 1.33334 4.07134C1.33334 4.15975 1.36846 4.24453 1.43097 4.30704C1.49349 4.36955 1.57827 4.40467 1.66668 4.40467H5.83334C5.92175 4.40467 6.00653 4.36955 6.06904 4.30704C6.13156 4.24453 6.16668 4.15975 6.16668 4.07134Z" fill="white"/>
<path fill-rule="evenodd" clip-rule="evenodd" d="M6.66667 4.07135C6.66665 3.98295 6.63152 3.89818 6.56901 3.83568L5.06901 2.33568C5.03826 2.30384 5.00148 2.27845 4.96081 2.26098C4.92014 2.24351 4.8764 2.23431 4.83214 2.23393C4.78788 2.23355 4.74399 2.24198 4.70302 2.25874C4.66206 2.2755 4.62484 2.30025 4.59354 2.33155C4.56224 2.36285 4.53749 2.40006 4.52073 2.44103C4.50397 2.48199 4.49554 2.52589 4.49592 2.57015C4.49631 2.61441 4.5055 2.65815 4.52297 2.69881C4.54044 2.73948 4.56584 2.77626 4.59767 2.80701L5.86201 4.07135L4.59767 5.33568C4.53513 5.39818 4.49997 5.48297 4.49994 5.57139C4.49991 5.65982 4.535 5.74463 4.59751 5.80718C4.66001 5.86973 4.7448 5.90488 4.83322 5.90491C4.92165 5.90494 5.00646 5.86985 5.06901 5.80735L6.56901 4.30735C6.6 4.27636 6.62458 4.23957 6.64134 4.19907C6.6581 4.15858 6.66671 4.11517 6.66667 4.07135Z" fill="white"/>
</svg>
