<svg width="23" height="23" viewBox="0 0 23 23" fill="none" xmlns="http://www.w3.org/2000/svg">
<g clip-path="url(#clip0_1_3)">
<mask id="mask0_1_3" style="mask-type:luminance" maskUnits="userSpaceOnUse" x="0" y="0" width="23" height="23">
<path d="M11.5 23C17.8513 23 23 17.8513 23 11.5C23 5.14873 17.8513 0 11.5 0C5.14873 0 0 5.14873 0 11.5C0 17.8513 5.14873 23 11.5 23Z" fill="white"/>
</mask>
<g mask="url(#mask0_1_3)">
<path d="M23 0V23H0L0.71875 21.4727L0 19.9453V15.0938L2.875 11.5L0 7.90625V3.05469L3.05469 0H7.90625L11.5 2.875L15.0938 0H19.9453L21.4727 0.71875L23 0Z" fill="#0052B4"/>
<path d="M0 0L0.359375 0.988281L0 2.02148V3.05469L4.85156 7.90625H0V9.34375L1.4375 11.5L0 13.6562V15.0938H4.85156L0 19.9453V23L23 0L21.9668 0.359375L20.9785 0H19.9453L15.0938 4.85156V0H13.6562L11.5 1.4375L9.34375 0H7.90625V4.85156L3.05469 0H0ZM17.9238 7.14258L17.6094 7.81641L16.8906 7.63672L17.2051 8.31055L16.666 8.75977L17.3848 8.93945V9.6582L17.9238 9.20898L18.5078 9.6582V8.93945L19.2266 8.75977L18.6426 8.31055L18.957 7.63672L18.2383 7.81641L17.9238 7.14258ZM20.4844 9.43359L20.1699 10.1074L19.4961 9.92773L19.8105 10.6016L19.2266 11.0508L19.9453 11.1855V11.9492L20.4844 11.5L21.0684 11.9492V11.1855L21.7871 11.0508L21.2031 10.6016L21.5176 9.92773L20.7988 10.1074L20.4844 9.43359ZM15.0039 10.4219L14.6895 11.0957L13.9707 10.916L14.2852 11.5898L13.7012 12.0391L14.4199 12.2188V12.9375L15.0039 12.4883L15.5879 12.9375V12.2188L16.2617 12.0391L15.7227 11.5898L16.0371 10.916L15.3184 11.0957L15.0039 10.4219ZM18.6875 12.9375L18.418 13.7012H17.6094L18.2832 14.1504L18.0137 14.9141L18.6875 14.4648L19.3164 14.9141L19.0918 14.1504L19.7207 13.7012H18.9121L18.6875 12.9375ZM9.07422 15.6328L8.44531 16.9805L7.05273 16.6211L7.68164 17.9688L6.51367 18.8672L7.95117 19.1816V20.6641L9.07422 19.7207L10.2422 20.6641V19.1816L11.6797 18.8672L10.5117 17.9688L11.1406 16.6211L9.70312 16.9805L9.07422 15.6328ZM17.9238 16.7109L17.6094 17.3848L16.8906 17.2051L17.2051 17.8789L16.666 18.3281L17.3848 18.4629V19.2266L17.9238 18.7773L18.5078 19.2266V18.4629L19.2266 18.3281L18.6426 17.8789L18.957 17.2051L18.2383 17.3848L17.9238 16.7109Z" fill="#EEEEEE"/>
<path d="M9.34375 13.6562L13.6562 9.34375V0H9.34375V9.34375H0V13.6562H9.34375ZM15.0938 7.90625L23 0H20.9785L15.0938 5.88477V7.90625ZM7.90625 7.90625L0 0V2.02148L5.88477 7.90625H7.90625Z" fill="#D80027"/>
</g>
</g>
<defs>
<clipPath id="clip0_1_3">
<rect width="23" height="23" fill="white"/>
</clipPath>
</defs>
</svg>
